<?xml version="1.0" encoding="UTF-8" standalone="no"?>
<!-- Created with Inkscape (http://www.inkscape.org/) -->

<svg
   xmlns:dc="http://purl.org/dc/elements/1.1/"
   xmlns:cc="http://creativecommons.org/ns#"
   xmlns:rdf="http://www.w3.org/1999/02/22-rdf-syntax-ns#"
   xmlns:svg="http://www.w3.org/2000/svg"
   xmlns="http://www.w3.org/2000/svg"
   xmlns:sodipodi="http://sodipodi.sourceforge.net/DTD/sodipodi-0.dtd"
   xmlns:inkscape="http://www.inkscape.org/namespaces/inkscape"
   width="300mm"
   height="225mm"
   viewBox="0 0 1062.9921 797.24408"
   id="svg2"
   version="1.1"
   inkscape:version="0.91 r"
   inkscape:export-filename="/home/alex/web/tecnual.github.io/img/logos/logoTecnualNube2.png"
   inkscape:export-xdpi="25.528784"
   inkscape:export-ydpi="25.528784"
   sodipodi:docname="logoTecnualNubeIII.svg">
  <defs
     id="defs4" />
  <sodipodi:namedview
     id="base"
     pagecolor="#000000"
     bordercolor="#666666"
     borderopacity="1.0"
     inkscape:pageopacity="1"
     inkscape:pageshadow="2"
     inkscape:zoom="0.49497475"
     inkscape:cx="338.81185"
     inkscape:cy="548.11473"
     inkscape:document-units="px"
     inkscape:current-layer="layer1"
     showgrid="false"
     inkscape:window-width="1366"
     inkscape:window-height="744"
     inkscape:window-x="0"
     inkscape:window-y="24"
     inkscape:window-maximized="1" />
  <metadata
     id="metadata7">
    <rdf:RDF>
      <cc:Work
         rdf:about="">
        <dc:format>image/svg+xml</dc:format>
        <dc:type
           rdf:resource="http://purl.org/dc/dcmitype/StillImage" />
        <dc:title></dc:title>
      </cc:Work>
    </rdf:RDF>
  </metadata>
  <g
     inkscape:label="Capa 1"
     inkscape:groupmode="layer"
     id="layer1"
     transform="translate(0,-255.11812)">
    <path
       style="opacity:1;fill:#ffffff;fill-opacity:1;fill-rule:nonzero;stroke:none;stroke-width:3.29999995;stroke-linecap:round;stroke-linejoin:round;stroke-miterlimit:4;stroke-dasharray:none;stroke-dashoffset:0;stroke-opacity:1"
       d="m 389.7155,304.6216 a 239.40889,246.40244 0 0 0 -239.40642,246.40252 239.40889,246.40244 0 0 0 2.55403,33.99819 C 75.195939,614.04064 20.105295,689.42427 20.105295,778.30837 c 0,114.14811 90.852805,206.04261 203.706845,206.04261 l 617.42176,0 c 112.85407,0 203.7067,-91.8945 203.7067,-206.04261 0,-114.14809 -90.85263,-206.04258 -203.7067,-206.04258 l -2.41594,0 a 138.60514,140.19449 0 0 0 0.31683,-6.37414 A 138.60514,140.19449 0 0 0 700.52998,425.69748 138.60514,140.19449 0 0 0 611.50366,458.6237 239.40889,246.40244 0 0 0 389.7155,304.6216 Z m -225.47898,355.44472 1.44155,0 0,20.0177 c -3.98622,0 -7.35351,0.27777 -10.10255,0.83376 -2.74903,0.5562 -4.94878,1.60024 -6.59823,3.12961 -1.64946,1.39038 -2.88666,3.33779 -3.71139,5.84036 -0.68709,2.36334 -1.03137,5.42124 -1.03137,9.17496 l 0,29.82144 c 0,8.34162 -1.09791,15.01281 -3.29703,20.01769 -2.06173,4.8659 -5.63403,8.89762 -10.71982,12.09538 5.08579,3.19754 8.65809,7.2997 10.71982,12.30457 2.19912,5.00512 3.29703,11.60984 3.29703,19.81248 l 0,30.03066 c 0,3.75373 0.34428,6.81183 1.03137,9.17519 0.82473,2.36355 2.06193,4.24051 3.71139,5.6309 1.64945,1.52917 3.8492,2.57343 6.59823,3.1294 2.74904,0.55618 6.11633,0.83376 10.10255,0.83376 l 0,20.01791 c -9.20922,0 -16.70183,-0.83293 -22.47493,-2.50129 -5.77286,-1.66837 -10.30775,-4.24138 -13.60666,-7.7171 -3.29868,-3.33673 -5.56414,-7.50514 -6.80134,-12.51002 -1.23698,-5.00512 -1.85549,-10.84758 -1.85549,-17.52084 l 0,-30.86441 c 0,-5.28313 -1.51182,-9.86997 -4.53568,-13.7627 -2.88646,-4.03192 -7.49097,-6.04557 -13.81383,-6.04557 l 0,-19.81247 c 6.32286,0 10.92737,-1.94741 13.81383,-5.84013 3.02386,-4.03193 4.53568,-8.75569 4.53568,-14.17756 l 0,-30.6592 c 0,-6.53425 0.61851,-12.30207 1.85549,-17.30716 1.2372,-5.1439 3.43301,-9.38274 6.59429,-12.71947 3.16149,-3.47575 7.56101,-6.04876 13.19668,-7.71711 5.63545,-1.80737 12.85366,-2.71074 21.65041,-2.71074 z m 738.74139,0 1.44135,0 c 8.79695,0 16.01515,0.90337 21.65061,2.71074 5.63547,1.66835 10.03103,4.24136 13.19254,7.71711 3.16127,3.33673 5.36123,7.57557 6.59823,12.71947 1.23698,5.00509 1.85568,10.77291 1.85568,17.30716 l 0,30.6592 c 0,5.42187 1.44614,10.14563 4.33257,14.17735 3.02388,3.89293 7.69408,5.84034 14.01685,5.84034 l 0,19.81247 c -6.32277,0 -10.99297,2.01365 -14.01685,6.04557 -2.88643,3.89273 -4.33257,8.47957 -4.33257,13.7627 l 0,30.86441 c 0,6.67326 -0.6187,12.51572 -1.85568,17.52084 -1.237,5.00488 -3.50244,9.17329 -6.80135,12.51002 -3.2987,3.47552 -7.83773,6.04873 -13.61062,7.7171 -5.77309,1.66836 -13.26174,2.50109 -22.47076,2.50109 l 0,-20.01771 c 7.97202,0 13.53929,-1.32182 16.70078,-3.96316 3.16129,-2.50256 4.74255,-7.43765 4.74255,-14.80609 l 0,-30.03066 c 0,-8.20264 1.02825,-14.80757 3.08998,-19.81248 2.19934,-5.00487 5.84129,-9.10703 10.92686,-12.30479 -5.08557,-3.19754 -8.72752,-7.22926 -10.92686,-12.09516 -2.06173,-5.00488 -3.08998,-11.67607 -3.08998,-20.01769 l 0,-29.82144 c 0,-3.75372 -0.4137,-6.81162 -1.23845,-9.17519 -0.68729,-2.50234 -1.85485,-4.44995 -3.5041,-5.84013 -1.64945,-1.52937 -3.84941,-2.57341 -6.59843,-3.12961 -2.74904,-0.55599 -6.11635,-0.83376 -10.10235,-0.83376 l 0,-20.0177 z m -21.8292,1.45809 0,124.91596 c 0,3.05855 0.20365,5.63175 0.61703,7.7171 0.54991,2.08537 1.44302,3.8921 2.68001,5.42126 1.23699,1.39037 2.88789,2.50487 4.94983,3.33905 2.19913,0.69519 4.94795,1.25032 8.24686,1.66752 l -3.50432,20.85147 c -7.42234,-0.13872 -13.60812,-0.97192 -18.55648,-2.50129 -4.81074,-1.52916 -8.66141,-3.68391 -11.54805,-6.46445 -2.88645,-2.91955 -4.94692,-6.46636 -6.18411,-10.63728 -1.09957,-4.30971 -1.64842,-9.17435 -1.64842,-14.59646 l 0,-125.54028 24.94765,-4.1726 z m -711.82849,17.31117 114.01452,0 0,22.72845 -43.91826,0 0,121.79055 -26.18193,0 0,-121.79055 -43.91433,0 0,-22.72845 z m 165.23372,32.74139 c 14.8447,0 26.39296,4.65729 34.64004,13.97212 8.38447,9.31482 12.57526,23.21648 12.57526,41.70713 0,1.39038 -0.0707,2.98976 -0.2079,4.79714 0,1.66817 -0.0666,3.19734 -0.20365,4.5875 l -71.13158,0 c 0.68711,8.75861 3.71055,15.57069 9.07097,20.43679 5.49804,4.72691 13.40041,7.08879 23.70922,7.08879 6.04792,0 11.54554,-0.55537 16.4937,-1.66754 5.08579,-1.11219 9.0718,-2.29312 11.95825,-3.54451 l 3.30121,20.64625 c -1.37463,0.69519 -3.29997,1.45766 -5.77415,2.29164 -2.33655,0.69519 -5.08536,1.32098 -8.24686,1.87695 -3.02386,0.69521 -6.32172,1.25035 -9.89527,1.66754 -3.57376,0.417 -7.21568,0.62833 -10.92687,0.62833 -9.48405,0 -17.7305,-1.39227 -24.74059,-4.17282 -7.00988,-2.91954 -12.78609,-6.88081 -17.322,-11.88571 -4.53588,-5.14391 -7.90341,-11.12324 -10.10253,-17.9355 -2.19914,-6.95127 -3.29704,-14.52579 -3.29704,-22.72844 0,-9.59281 1.37232,-18.00427 4.12135,-25.23371 2.88643,-7.22948 6.66768,-13.20859 11.34099,-17.9355 4.67331,-4.86591 10.03562,-8.47917 16.08354,-10.84252 6.04795,-2.50255 12.22956,-3.75393 18.55233,-3.75393 z m 120.88468,0 c 10.17137,0 19.79431,1.87696 28.8661,5.63069 l -5.35979,20.64204 c -2.88646,-1.25118 -6.18827,-2.29123 -9.89942,-3.12542 -3.57377,-0.83419 -7.4205,-1.25264 -11.54414,-1.25264 -9.7589,0 -17.18206,3.12833 -22.26765,9.38464 -5.08579,6.11727 -7.62961,14.8063 -7.62961,26.06748 0,10.84398 2.4087,19.46276 7.21945,25.85804 4.81073,6.25606 12.91809,9.38464 24.32645,9.38464 4.26106,0 8.45578,-0.41448 12.57943,-1.24866 4.12343,-0.83418 7.69572,-1.87822 10.71961,-3.12961 l 3.50429,20.85147 c -2.74901,1.39038 -6.94001,2.64177 -12.57548,3.75392 -5.49784,1.11218 -11.20441,1.67154 -17.11493,1.67154 -9.20919,0 -17.24672,-1.39227 -24.11917,-4.17282 -6.73524,-2.91954 -12.37218,-6.88081 -16.90806,-11.88571 -4.39828,-5.14391 -7.69617,-11.19368 -9.8953,-18.14495 -2.19933,-7.09046 -3.30119,-14.73523 -3.30119,-22.93786 0,-8.06366 1.2372,-15.57174 3.71118,-22.523 2.47418,-7.09046 5.98099,-13.20648 10.51667,-18.35039 4.67331,-5.1441 10.3063,-9.17581 16.90391,-12.09537 6.59761,-2.91953 14.0208,-4.37803 22.26765,-4.37803 z m 327.11718,0 c 8.24707,0 15.18688,1.04004 20.82234,3.12539 5.63547,2.08559 10.10068,5.0066 13.39959,8.76032 3.43612,3.75373 5.84503,8.3408 7.21945,13.76289 1.51203,5.28289 2.26585,11.12134 2.26585,17.51642 l 0,66.10709 c -3.84858,0.83417 -9.69049,1.80798 -17.5251,2.92015 -7.69738,1.25139 -16.42324,1.87699 -26.18213,1.87699 -6.46019,0 -12.37176,-0.6256 -17.73238,-1.87699 -5.36043,-1.25116 -9.96492,-3.26502 -13.81374,-6.04556 -3.71115,-2.78055 -6.6689,-6.3978 -8.86783,-10.84673 -2.06173,-4.4489 -3.08999,-9.93913 -3.08999,-16.4734 0,-6.25607 1.16736,-11.53917 3.50412,-15.8491 2.47418,-4.30971 5.77184,-7.78627 9.89547,-10.42783 4.12343,-2.78056 8.86724,-4.72796 14.22785,-5.84013 5.49804,-1.25119 11.20046,-1.87698 17.11098,-1.87698 2.74904,0 5.63714,0.21134 8.661,0.62834 3.02386,0.27818 6.25208,0.83334 9.68842,1.66752 l 0,-4.17282 c 0,-2.91953 -0.34427,-5.69987 -1.03137,-8.34143 -0.68732,-2.64132 -1.92451,-4.93276 -3.71138,-6.87934 -1.64947,-2.08536 -3.91493,-3.68476 -6.80136,-4.79694 -2.74903,-1.11217 -6.25563,-1.66752 -10.51667,-1.66752 -5.7729,0 -11.06159,0.41447 -15.87233,1.24866 -4.81095,0.83416 -8.73127,1.80778 -11.75514,2.92015 l -3.09017,-20.43677 c 3.16149,-1.11217 7.766,-2.22268 13.81392,-3.33485 6.04773,-1.11219 12.50813,-1.66753 19.3806,-1.66753 z m -232.75953,0.41489 c 8.79694,0 16.15028,1.25136 22.06078,3.75372 5.91031,2.36357 10.58447,5.76948 14.02081,10.21839 3.57374,4.30991 6.04812,9.59281 7.42255,15.8491 1.51202,6.11729 2.2698,12.85888 2.2698,20.22734 l 0,61.31417 -24.94764,0 0,-57.351 c 0,-5.83909 -0.41372,-10.77417 -1.23845,-14.80589 -0.68709,-4.17071 -1.9243,-7.5064 -3.71118,-10.00895 -1.64945,-2.64135 -3.98454,-4.51851 -7.0084,-5.6307 -2.88645,-1.25116 -6.46291,-1.87696 -10.72374,-1.87696 -3.16152,0 -6.45917,0.20816 -9.8955,0.62431 -3.43634,0.41699 -5.98017,0.76523 -7.62962,1.04322 l 0,88.00597 -24.94767,0 0,-105.52259 c 4.81075,-1.39018 11.06618,-2.712 18.76355,-3.96338 7.69719,-1.25118 16.21807,-1.87675 25.56471,-1.87675 z m 75.24107,2.29585 24.94766,0 0,57.13714 c 0,11.67837 1.65091,20.01937 4.94962,25.02426 3.43633,5.00512 9.34768,7.50768 17.73215,7.50768 3.02388,0 6.18246,-0.13666 9.48137,-0.41468 3.43611,-0.27821 5.98016,-0.62622 7.62961,-1.04321 l 0,-88.21119 24.94766,0 0,105.7278 c -4.81076,1.25119 -11.06636,2.50256 -18.76356,3.75372 -7.69716,1.39038 -16.14862,2.08643 -25.35781,2.08643 -8.65935,0 -15.94324,-1.25139 -21.85352,-3.75372 -5.77289,-2.50258 -10.44705,-5.97915 -14.02079,-10.42785 -3.43634,-4.44891 -5.91072,-9.73201 -7.42257,-15.8493 -1.51204,-6.25606 -2.26982,-13.06813 -2.26982,-20.43657 l 0,-61.10051 z m -290.27635,18.35017 c -3.84858,0 -7.21609,0.76248 -10.10255,2.29184 -2.88663,1.39018 -5.36102,3.26736 -7.42254,5.63071 -1.92428,2.36356 -3.43611,5.07744 -4.53569,8.13596 -1.09958,3.05877 -1.85339,6.1871 -2.26567,9.38464 l 46.38705,0 c 0,-3.47552 -0.47941,-6.74476 -1.44155,-9.8035 -0.96216,-3.19754 -2.40413,-5.90743 -4.32843,-8.13199 -1.78688,-2.36336 -4.05628,-4.16987 -6.80531,-5.42126 -2.61158,-1.39017 -5.77412,-2.0864 -9.48531,-2.0864 z m 452.74047,41.91656 c -2.74902,0 -5.56748,0.20819 -8.45393,0.62433 -2.74904,0.417 -5.28892,1.18368 -7.62546,2.29585 -2.19934,1.11216 -3.98954,2.71157 -5.36416,4.79692 -1.37461,1.94658 -2.0584,4.44913 -2.0584,7.50766 0,5.9783 1.85569,10.14671 5.56667,12.51027 3.71137,2.22435 8.72566,3.33904 15.04821,3.33904 7.69739,0 13.53909,-0.41866 17.52531,-1.25265 l 0,-27.94445 c -1.37461,-0.41699 -3.36566,-0.83564 -5.97704,-1.25264 -2.61161,-0.41699 -5.49971,-0.62433 -8.6612,-0.62433 z"
       id="path4148"
       inkscape:connector-curvature="0" />
  </g>
</svg>
